# xmcd
#
# Track frame offsets:
#	150
#	16175
#	25872
#	40720
#	57950
#	74075
#	95845
#	110195
#	126315
#	139065
#	156230
#	173322
#
# Disc length: 2463 seconds
#
# Revision: 2
# Processed by: cddbd v1.5.2PL0 Copyright (c) Steve Scherf et al.
# Submitted via: audiograbber 1.83.01
#
DISCID=a5099d0c
DTITLE=Various Artist - Australia's Favourite Line Dances Volume 1
DYEAR=1994
DGENRE=Country
TTITLE0=Mary Chapin Carpenter - I Feel Lucky
TTITLE1=Bobbie Cryner - I Don't Care
TTITLE2=Rodney Crowell - I Couldn't Leave You If I Tried
TTITLE3=Joe Diffie - Honky Tonk Attitude
TTITLE4=Dolly Parton - Romeo
TTITLE5=Willie Nelson - City Of New Orleans
TTITLE6=Gibson Miller Band - Texas Tattoo
TTITLE7=Patty Loveless - Blame It On Your Heart
TTITLE8=Jean Stafford - Tassie's Got It All
TTITLE9=Mary Chapin Carpenter - The Bug
TTITLE10=Rodney Crowell - Lovin' All Night
TTITLE11=Ricky Van Shelton - Hole In My Pocket
EXTD=
EXTT0=
EXTT1=
EXTT2=
EXTT3=
EXTT4=
EXTT5=
EXTT6=
EXTT7=
EXTT8=
EXTT9=
EXTT10=
EXTT11=
PLAYORDER=
